# xmcd
#
# Track frame offsets: 
#        150
#        11974
#        20323
#        29739
#        41367
#        52530
#        62617
#        70886
#        80738
#        96732
#        105836
#
# Disc length: 1563 seconds
#
# Revision: 0
# Processed by: cddbd v1.5.2PL0 Copyright (c) Steve Scherf et al.
# Submitted via: ExactAudioCopy v0.95b3
#
DISCID=8806190b
DTITLE=The Beatles  - Way Beyond Compare - Episode 10.5 The Star Club 
DTITLE=(28+31 December 1962)  FLAC
DYEAR=1900
DGENRE=
TTITLE0=Shimmy Like Kate
TTITLE1=Long Tall Sally
TTITLE2=Falling In Love Again (Can't Help It)
TTITLE3=Roll Over Beethoven
TTITLE4=I Saw Her Standing There
TTITLE5=Road Runner
TTITLE6=Hippy, Hippy Shake
TTITLE7=A Taste Of Honey
TTITLE8=Money (That's What I Want)
TTITLE9=Reminiscing [Live]
TTITLE10=Ask Me Why
EXTD=
EXTT0=
EXTT1=
EXTT2=
EXTT3=
EXTT4=
EXTT5=
EXTT6=
EXTT7=
EXTT8=
EXTT9=
EXTT10=
PLAYORDER=
